<svg class="main-svg" xmlns="http://www.w3.org/2000/svg" xmlns:xlink="http://www.w3.org/1999/xlink" width="1920" height="1080" style="" viewBox="0 0 1920 1080"><rect x="0" y="0" width="1920" height="1080" style="fill: rgb(255, 255, 255); fill-opacity: 1;"/><defs id="defs-ee2c25"><g class="clips"><clipPath class="plotclip" id="clipee2c25xyplot"><rect width="1728" height="900"/></clipPath><clipPath class="axesclip" id="clipee2c25x"><rect x="80" y="0" width="1728" height="1080"/></clipPath><clipPath class="axesclip" id="clipee2c25y"><rect x="0" y="100" width="1920" height="900"/></clipPath><clipPath class="axesclip" id="clipee2c25xy"><rect x="80" y="100" width="1728" height="900"/></clipPath></g><g class="gradients"/></defs><g class="bglayer"><rect class="bg" x="80" y="100" width="1728" height="900" style="fill: rgb(255, 255, 255); fill-opacity: 1; stroke-width: 0;"/></g><g class="layer-below"><g class="imagelayer"/><g class="shapelayer"/></g><g class="cartesianlayer"><g class="subplot xy"><g class="layer-subplot"><g class="shapelayer"/><g class="imagelayer"/></g><g class="gridlayer"><g class="x"><path class="xgrid crisp" d="M0,100v900" transform="translate(258.78,0)" style="stroke: rgb(238, 238, 238); stroke-opacity: 1; stroke-width: 1px;"/><path class="xgrid crisp" d="M0,100v900" transform="translate(542.44,0)" style="stroke: rgb(238, 238, 238); stroke-opacity: 1; stroke-width: 1px;"/><path class="xgrid crisp" d="M0,100v900" transform="translate(826.11,0)" style="stroke: rgb(238, 238, 238); stroke-opacity: 1; stroke-width: 1px;"/><path class="xgrid crisp" d="M0,100v900" transform="translate(1109.77,0)" style="stroke: rgb(238, 238, 238); stroke-opacity: 1; stroke-width: 1px;"/><path class="xgrid crisp" d="M0,100v900" transform="translate(1393.44,0)" style="stroke: rgb(238, 238, 238); stroke-opacity: 1; stroke-width: 1px;"/><path class="xgrid crisp" d="M0,100v900" transform="translate(1677.1,0)" style="stroke: rgb(238, 238, 238); stroke-opacity: 1; stroke-width: 1px;"/></g><g class="y"><path class="ygrid crisp" d="M80,0h1728" transform="translate(0,942.41)" style="stroke: rgb(238, 238, 238); stroke-opacity: 1; stroke-width: 1px;"/><path class="ygrid crisp" d="M80,0h1728" transform="translate(0,849.37)" style="stroke: rgb(238, 238, 238); stroke-opacity: 1; stroke-width: 1px;"/><path class="ygrid crisp" d="M80,0h1728" transform="translate(0,756.32)" style="stroke: rgb(238, 238, 238); stroke-opacity: 1; stroke-width: 1px;"/><path class="ygrid crisp" d="M80,0h1728" transform="translate(0,663.28)" style="stroke: rgb(238, 238, 238); stroke-opacity: 1; stroke-width: 1px;"/><path class="ygrid crisp" d="M80,0h1728" transform="translate(0,570.24)" style="stroke: rgb(238, 238, 238); stroke-opacity: 1; stroke-width: 1px;"/><path class="ygrid crisp" d="M80,0h1728" transform="translate(0,477.19)" style="stroke: rgb(238, 238, 238); stroke-opacity: 1; stroke-width: 1px;"/><path class="ygrid crisp" d="M80,0h1728" transform="translate(0,384.15)" style="stroke: rgb(238, 238, 238); stroke-opacity: 1; stroke-width: 1px;"/><path class="ygrid crisp" d="M80,0h1728" transform="translate(0,291.11)" style="stroke: rgb(238, 238, 238); stroke-opacity: 1; stroke-width: 1px;"/><path class="ygrid crisp" d="M80,0h1728" transform="translate(0,198.06)" style="stroke: rgb(238, 238, 238); stroke-opacity: 1; stroke-width: 1px;"/><path class="ygrid crisp" d="M80,0h1728" transform="translate(0,105.02)" style="stroke: rgb(238, 238, 238); stroke-opacity: 1; stroke-width: 1px;"/></g></g><g class="zerolinelayer"/><path class="xlines-below"/><path class="ylines-below"/><g class="overlines-below"/><g class="xaxislayer-below"/><g class="yaxislayer-below"/><g class="overaxes-below"/><g class="plot" transform="translate(80, 100)" clip-path="url(#clipee2c25xyplot)"><g class="imagelayer"/><g class="maplayer"/><g class="barlayer"/><g class="carpetlayer"/><g class="violinlayer"/><g class="boxlayer"/><g class="scatterlayer"><g class="trace scatter traceb84192" style="stroke-miterlimit: 2; opacity: 1;"><path class="js-line" style="vector-effect: non-scaling-stroke; fill: none; stroke: rgb(0, 0, 255); stroke-opacity: 1; stroke-width: 2px; opacity: 1;" d="M91.75,775.42L92.73,772.63L93.7,775.42L100.38,772.63L101.36,775.42L115.7,775.42L116.68,772.63L175.33,772.63L176.3,775.42L177.28,775.42L182.98,778.68L183.96,775.42L184.94,775.42L190.64,772.63L191.62,758.21L192.6,705.64L198.3,685.63L200.26,674L205.96,682.38L206.94,685.63L207.91,694.01L213.62,702.85L214.6,708.89L215.57,717.27L221.28,720.52L223.23,720.52L228.94,726.11L230.89,734.95L236.6,740.53L237.57,740.53L238.55,737.74L244.26,737.74L245.23,740.53L246.21,743.78L251.92,746.58L253.87,752.16L259.58,755.42L261.53,761L267.23,763.79L268.21,767.05L273.92,769.84L281.58,769.84L288.26,772.63L302.6,772.63L303.58,775.42L312.21,775.42L317.92,778.68L333.23,778.68L334.21,781.47L335.19,784.26L340.89,784.26L348.55,784.26L349.53,787.05L371.53,787.05L372.51,784.26L380.17,784.26L381.14,778.68L386.85,778.68L387.82,775.42L388.8,772.63L394.51,772.63L395.48,775.42L396.46,775.42L403.14,775.42L404.12,778.68L409.83,778.68L410.8,781.47L411.78,778.68L417.48,778.68L418.46,775.42L419.44,775.42L427.1,775.42L432.8,778.68L433.78,778.68L434.76,781.47L440.46,781.47L441.44,784.26L448.12,784.26L449.1,787.05L455.78,787.05L456.76,784.26L463.44,784.26L464.41,787.05L495.05,787.05L496.03,784.26L501.73,781.47L502.71,772.63L503.69,772.63L509.39,767.05L510.37,767.05L511.35,763.79L517.05,767.05L518.03,769.84L519.01,767.05L524.71,763.79L525.69,767.05L526.66,767.05L532.37,769.84L533.35,772.63L534.32,772.63L540.03,775.42L541.98,775.42L547.69,772.63L548.66,769.84L549.64,769.84L556.32,767.05L557.3,767.05L578.32,767.05L579.3,763.79L580.28,761L585.98,761L587.94,761L593.64,763.79L618.58,763.79L624.28,761L625.25,758.21L626.23,758.21L647.25,758.21L648.23,749.37L649.21,746.58L654.91,749.37L656.87,749.37L662.57,746.58L663.55,734.95L664.53,734.95L671.21,734.95L672.19,732.15L686.53,732.15L687.5,726.11L694.19,723.32L695.16,723.32L700.87,723.32L701.84,717.27L702.82,711.68L708.53,705.64L710.48,697.26L716.19,700.05L717.16,697.26L718.14,697.26L723.84,697.26L724.82,694.01L725.8,688.42L731.5,694.01L732.48,688.42L733.46,688.42L739.16,691.22L740.14,697.26L741.12,700.05L746.82,702.85L748.78,702.85L754.48,705.64L755.46,702.85L756.43,702.85L763.12,700.05L764.1,700.05L769.8,702.85L770.78,705.64L779.41,705.64L785.12,702.85L787.07,697.26L792.78,700.05L793.75,700.05L794.73,702.85L801.41,705.64L802.39,700.05L808.09,702.85L809.08,705.64L810.05,708.89L815.75,708.89L817.71,708.89L823.42,705.64L824.39,702.85L825.37,705.64L831.07,705.64L832.05,708.89L833.03,705.64L838.73,705.64L839.71,705.64L840.69,708.89L847.37,708.89L848.34,705.64L854.05,705.64L855.03,708.89L856.01,711.68L861.71,711.68L862.69,714.48L863.66,714.48L869.37,711.68L870.35,714.48L871.32,711.68L877.03,708.89L878,711.68L878.98,711.68L884.68,711.68L885.66,708.89L886.64,708.89L892.34,714.48L893.32,711.68L894.3,714.48L900,711.68L900.98,705.64L901.96,697.26L907.66,694.01L909.62,694.01L915.32,685.63L917.28,685.63L922.98,688.42L924.93,688.42L930.64,691.22L931.62,694.01L932.6,688.42L939.28,691.22L940.25,694.01L945.96,697.26L946.94,694.01L947.91,688.42L953.62,688.42L954.59,691.22L955.57,697.26L961.28,697.26L962.25,694.01L963.23,697.26L968.94,700.05L970.89,694.01L976.59,694.01L978.55,694.01L984.25,697.26L985.23,700.05L986.21,700.05L991.91,697.26L992.89,691.22L993.87,691.22L999.57,688.42L1001.52,694.01L1007.23,691.22L1008.21,691.22L1009.18,685.63L1015.87,685.63L1016.84,682.38L1022.55,685.63L1023.53,688.42L1024.5,691.22L1030.21,688.42L1031.18,685.63L1032.16,688.42L1037.87,691.22L1038.84,694.01L1039.82,697.26L1045.53,702.85L1046.5,702.85L1047.48,700.05L1053.18,700.05L1054.16,702.85L1055.14,702.85L1060.84,705.64L1061.82,705.64L1062.8,702.85L1069.48,705.64L1070.46,702.85L1078.12,702.85L1083.82,705.64L1085.78,705.64L1091.48,702.85L1092.46,705.64L1093.43,702.85L1100.12,700.05L1101.09,700.05L1107.78,697.26L1108.75,697.26L1114.46,697.26L1115.43,694.01L1116.41,694.01L1122.12,691.22L1123.09,694.01L1124.07,691.22L1130.75,688.42L1131.73,691.22L1137.43,685.63L1138.41,682.38L1139.39,679.58L1145.09,679.58L1146.07,685.63L1147.05,685.63L1152.75,685.63L1153.73,688.42L1154.71,691.22L1160.41,691.22L1161.39,694.01L1162.37,694.01L1168.07,694.01L1169.05,688.42L1170.03,682.38L1175.73,685.63L1176.71,685.63L1177.68,691.22L1185.34,691.22L1191.05,694.01L1192.03,694.01L1193,691.22L1198.71,691.22L1199.68,688.42L1200.66,682.38L1206.37,679.58L1207.34,682.38L1208.32,682.38L1215,685.63L1215.98,682.38L1221.68,685.63L1222.66,682.38L1223.64,679.58L1229.34,682.38L1245.64,682.38L1246.62,667.95L1253.3,667.95L1254.28,670.75L1259.98,667.95L1260.96,665.16L1261.93,662.37L1267.64,659.12L1268.62,659.12L1269.59,653.53L1275.3,650.74L1276.27,644.69L1277.25,647.48L1282.96,647.48L1283.93,647.48L1284.91,644.69L1290.61,647.48L1291.59,650.74L1292.57,653.53L1298.27,656.32L1299.25,656.32L1300.23,650.74L1305.93,647.48L1306.91,644.69L1307.89,641.9L1313.59,644.69L1314.57,647.48L1315.55,644.69L1321.25,647.48L1322.23,653.53L1323.21,644.69L1328.91,644.69L1330.86,644.69L1336.57,641.9L1337.55,644.69L1338.52,635.85L1345.21,639.11L1346.18,639.11L1352.86,635.85L1353.84,635.85L1361.5,635.85L1367.21,633.06L1368.18,633.06L1369.16,624.22L1374.87,624.22L1375.84,630.27L1376.82,633.06L1382.52,633.06L1383.5,635.85L1384.48,633.06L1391.16,635.85L1392.14,633.06L1397.84,635.85L1398.82,639.11L1399.79,641.9L1405.5,641.9L1406.48,639.11L1407.45,641.9L1414.14,644.69L1415.11,647.48L1420.82,650.74L1421.8,653.53L1422.77,656.32L1428.48,659.12L1430.43,665.16L1436.14,665.16L1438.09,653.53L1443.8,656.32L1445.75,665.16L1451.45,659.12L1452.43,662.37L1453.41,656.32L1459.11,641.9L1460.09,630.27L1461.07,618.64L1466.77,607.01L1467.75,609.8L1468.73,604.22L1474.43,589.33L1475.41,577.7L1476.39,572.12L1482.09,566.07L1483.07,560.49L1484.05,563.28L1489.75,580.96L1490.73,580.96L1491.7,580.96L1497.41,577.7L1498.39,583.75L1499.36,595.38L1505.07,612.59L1506.05,624.22L1507.02,615.85L1512.73,607.01L1513.7,595.38L1514.68,595.38L1520.39,607.01L1521.36,618.64L1522.34,633.06L1528.05,644.69L1535.7,644.69L1536.68,647.48L1537.66,650.74L1543.36,650.74L1544.34,650.74L1545.32,653.53L1552,653.53L1552.98,650.74L1558.68,641.9L1559.66,633.06L1560.64,635.85L1566.34,633.06L1567.32,630.27L1568.3,609.8L1574.98,607.01L1575.95,598.17L1581.66,577.7L1582.64,569.33L1583.61,572.12L1589.32,563.28L1590.29,557.7L1591.27,557.7L1596.98,548.86L1597.95,540.02L1598.93,537.23L1604.64,537.23L1605.61,534.44L1606.59,540.02L1612.29,537.23L1613.27,528.39L1614.25,534.44L1619.95,540.02L1620.93,537.23L1621.91,531.18L1627.61,534.44L1628.59,525.6L1629.57,525.6L1635.27,516.76L1636.25,505.13"/><g class="points"><path class="point" transform="translate(91.75,775.42)" d="M3,3H-3V-3H3Z" style="opacity: 1; stroke-width: 0px; fill: rgb(0, 0, 255); fill-opacity: 1;"/><path class="point" transform="translate(221.28,720.52)" d="M3,3H-3V-3H3Z" style="opacity: 1; stroke-width: 0px; fill: rgb(0, 0, 255); fill-opacity: 1;"/><path class="point" transform="translate(304.55,775.42)" d="M3,3H-3V-3H3Z" style="opacity: 1; stroke-width: 0px; fill: rgb(0, 0, 255); fill-opacity: 1;"/><path class="point" transform="translate(386.85,778.68)" d="M3,3H-3V-3H3Z" style="opacity: 1; stroke-width: 0px; fill: rgb(0, 0, 255); fill-opacity: 1;"/><path class="point" transform="translate(463.44,784.26)" d="M3,3H-3V-3H3Z" style="opacity: 1; stroke-width: 0px; fill: rgb(0, 0, 255); fill-opacity: 1;"/><path class="point" transform="translate(540.03,775.42)" d="M3,3H-3V-3H3Z" style="opacity: 1; stroke-width: 0px; fill: rgb(0, 0, 255); fill-opacity: 1;"/><path class="point" transform="translate(616.62,763.79)" d="M3,3H-3V-3H3Z" style="opacity: 1; stroke-width: 0px; fill: rgb(0, 0, 255); fill-opacity: 1;"/><path class="point" transform="translate(693.21,723.32)" d="M3,3H-3V-3H3Z" style="opacity: 1; stroke-width: 0px; fill: rgb(0, 0, 255); fill-opacity: 1;"/><path class="point" transform="translate(769.8,702.85)" d="M3,3H-3V-3H3Z" style="opacity: 1; stroke-width: 0px; fill: rgb(0, 0, 255); fill-opacity: 1;"/><path class="point" transform="translate(846.39,708.89)" d="M3,3H-3V-3H3Z" style="opacity: 1; stroke-width: 0px; fill: rgb(0, 0, 255); fill-opacity: 1;"/><path class="point" transform="translate(922.98,688.42)" d="M3,3H-3V-3H3Z" style="opacity: 1; stroke-width: 0px; fill: rgb(0, 0, 255); fill-opacity: 1;"/><path class="point" transform="translate(999.57,688.42)" d="M3,3H-3V-3H3Z" style="opacity: 1; stroke-width: 0px; fill: rgb(0, 0, 255); fill-opacity: 1;"/><path class="point" transform="translate(1076.16,702.85)" d="M3,3H-3V-3H3Z" style="opacity: 1; stroke-width: 0px; fill: rgb(0, 0, 255); fill-opacity: 1;"/><path class="point" transform="translate(1152.75,685.63)" d="M3,3H-3V-3H3Z" style="opacity: 1; stroke-width: 0px; fill: rgb(0, 0, 255); fill-opacity: 1;"/><path class="point" transform="translate(1229.34,682.38)" d="M3,3H-3V-3H3Z" style="opacity: 1; stroke-width: 0px; fill: rgb(0, 0, 255); fill-opacity: 1;"/><path class="point" transform="translate(1305.93,647.48)" d="M3,3H-3V-3H3Z" style="opacity: 1; stroke-width: 0px; fill: rgb(0, 0, 255); fill-opacity: 1;"/><path class="point" transform="translate(1382.52,633.06)" d="M3,3H-3V-3H3Z" style="opacity: 1; stroke-width: 0px; fill: rgb(0, 0, 255); fill-opacity: 1;"/><path class="point" transform="translate(1459.11,641.9)" d="M3,3H-3V-3H3Z" style="opacity: 1; stroke-width: 0px; fill: rgb(0, 0, 255); fill-opacity: 1;"/><path class="point" transform="translate(1535.7,644.69)" d="M3,3H-3V-3H3Z" style="opacity: 1; stroke-width: 0px; fill: rgb(0, 0, 255); fill-opacity: 1;"/><path class="point" transform="translate(1612.29,537.23)" d="M3,3H-3V-3H3Z" style="opacity: 1; stroke-width: 0px; fill: rgb(0, 0, 255); fill-opacity: 1;"/></g></g><g class="trace scatter trace99ea3a" style="stroke-miterlimit: 2; opacity: 1;"><path class="js-line" style="vector-effect: non-scaling-stroke; fill: none; stroke: rgb(255, 0, 0); stroke-opacity: 1; stroke-width: 2px; opacity: 1;" d="M91.75,848.46L100.38,848.46L101.36,851.25L108.04,848.46L109.02,848.46L175.33,848.46L176.3,845.2L244.26,845.2L245.23,842.41L246.21,845.2L251.92,842.41L252.89,845.2L253.87,842.41L260.55,845.2L261.53,845.2L311.23,845.2L312.21,848.46L317.92,845.2L318.89,848.46L379.19,848.46L380.17,845.2L394.51,845.2L395.48,848.46L403.14,848.46L404.12,845.2L410.8,848.46L411.78,848.46L478.76,848.46L479.73,845.2L480.71,848.46L486.41,848.46L487.39,848.46L488.37,845.2L495.05,848.46L496.03,845.2L525.69,845.2L526.66,848.46L534.32,848.46L540.03,845.2L547.69,845.2L548.66,842.41L557.3,842.41L563.01,839.62L570.67,839.62L571.64,836.83L585.98,836.83L586.96,833.57L595.6,833.57L601.3,830.78L624.28,830.78L625.25,827.99L641.55,827.99L647.25,825.2L663.55,825.2L664.53,821.94L687.5,821.94L693.21,819.15L710.48,819.15L716.19,816.36L739.16,816.36L740.14,813.57L808.09,813.57L809.08,810.31L833.03,810.31L838.73,807.52L863.66,807.52L869.37,804.73L900,804.73L900.98,801.94L901.96,793.1L907.66,787.05L908.64,790.31L909.62,790.31L916.3,793.1L917.28,793.1L922.98,793.1L923.96,795.89L961.28,795.89L962.25,798.68L963.23,795.89L968.94,798.68L969.91,795.89L970.89,795.89L976.59,795.89L977.57,798.68L1014.89,798.68L1015.87,801.94L1060.84,801.94L1061.82,798.68L1070.46,798.68L1076.16,801.94L1078.12,801.94L1083.82,798.68L1084.8,798.68L1085.78,801.94L1092.46,798.68L1093.43,798.68L1170.03,798.68L1175.73,795.89L1176.71,798.68L1177.68,798.68L1184.37,795.89L1185.34,795.89L1214.03,795.89L1215,798.68L1222.66,798.68L1223.64,795.89L1230.32,798.68L1231.3,798.68L1237,795.89L1237.98,798.68L1238.96,798.68L1244.66,761L1253.3,761L1254.28,758.21L1353.84,758.21L1359.55,755.42L1397.84,755.42L1398.82,752.16L1438.09,752.16L1443.8,755.42L1451.45,755.42L1452.43,752.16L1497.41,752.16L1498.39,755.42L1505.07,755.42L1506.05,752.16L1507.02,752.16L1512.73,755.42L1514.68,763.79L1520.39,763.79L1521.36,761L1522.34,761L1536.68,761L1537.66,758.21L1552.98,758.21L1558.68,755.42L1566.34,755.42L1567.32,752.16L1582.64,752.16L1583.61,749.37L1605.61,749.37L1606.59,752.16L1620.93,752.16L1621.91,749.37L1627.61,752.16L1628.59,749.37L1629.57,752.16"/><g class="points"><path class="point" transform="translate(191.62,845.2)" d="M3.9,0L0,3.9L-3.9,0L0,-3.9Z" style="opacity: 1; stroke-width: 0px; fill: rgb(255, 0, 0); fill-opacity: 1;"/><path class="point" transform="translate(267.23,845.2)" d="M3.9,0L0,3.9L-3.9,0L0,-3.9Z" style="opacity: 1; stroke-width: 0px; fill: rgb(255, 0, 0); fill-opacity: 1;"/><path class="point" transform="translate(349.53,848.46)" d="M3.9,0L0,3.9L-3.9,0L0,-3.9Z" style="opacity: 1; stroke-width: 0px; fill: rgb(255, 0, 0); fill-opacity: 1;"/><path class="point" transform="translate(426.12,848.46)" d="M3.9,0L0,3.9L-3.9,0L0,-3.9Z" style="opacity: 1; stroke-width: 0px; fill: rgb(255, 0, 0); fill-opacity: 1;"/><path class="point" transform="translate(501.73,845.2)" d="M3.9,0L0,3.9L-3.9,0L0,-3.9Z" style="opacity: 1; stroke-width: 0px; fill: rgb(255, 0, 0); fill-opacity: 1;"/><path class="point" transform="translate(572.62,836.83)" d="M3.9,0L0,3.9L-3.9,0L0,-3.9Z" style="opacity: 1; stroke-width: 0px; fill: rgb(255, 0, 0); fill-opacity: 1;"/><path class="point" transform="translate(648.23,825.2)" d="M3.9,0L0,3.9L-3.9,0L0,-3.9Z" style="opacity: 1; stroke-width: 0px; fill: rgb(255, 0, 0); fill-opacity: 1;"/><path class="point" transform="translate(723.84,816.36)" d="M3.9,0L0,3.9L-3.9,0L0,-3.9Z" style="opacity: 1; stroke-width: 0px; fill: rgb(255, 0, 0); fill-opacity: 1;"/><path class="point" transform="translate(794.73,813.57)" d="M3.9,0L0,3.9L-3.9,0L0,-3.9Z" style="opacity: 1; stroke-width: 0px; fill: rgb(255, 0, 0); fill-opacity: 1;"/><path class="point" transform="translate(870.35,804.73)" d="M3.9,0L0,3.9L-3.9,0L0,-3.9Z" style="opacity: 1; stroke-width: 0px; fill: rgb(255, 0, 0); fill-opacity: 1;"/><path class="point" transform="translate(945.96,795.89)" d="M3.9,0L0,3.9L-3.9,0L0,-3.9Z" style="opacity: 1; stroke-width: 0px; fill: rgb(255, 0, 0); fill-opacity: 1;"/><path class="point" transform="translate(1016.84,801.94)" d="M3.9,0L0,3.9L-3.9,0L0,-3.9Z" style="opacity: 1; stroke-width: 0px; fill: rgb(255, 0, 0); fill-opacity: 1;"/><path class="point" transform="translate(1092.46,798.68)" d="M3.9,0L0,3.9L-3.9,0L0,-3.9Z" style="opacity: 1; stroke-width: 0px; fill: rgb(255, 0, 0); fill-opacity: 1;"/><path class="point" transform="translate(1168.07,798.68)" d="M3.9,0L0,3.9L-3.9,0L0,-3.9Z" style="opacity: 1; stroke-width: 0px; fill: rgb(255, 0, 0); fill-opacity: 1;"/><path class="point" transform="translate(1238.96,798.68)" d="M3.9,0L0,3.9L-3.9,0L0,-3.9Z" style="opacity: 1; stroke-width: 0px; fill: rgb(255, 0, 0); fill-opacity: 1;"/><path class="point" transform="translate(1314.57,758.21)" d="M3.9,0L0,3.9L-3.9,0L0,-3.9Z" style="opacity: 1; stroke-width: 0px; fill: rgb(255, 0, 0); fill-opacity: 1;"/><path class="point" transform="translate(1390.18,755.42)" d="M3.9,0L0,3.9L-3.9,0L0,-3.9Z" style="opacity: 1; stroke-width: 0px; fill: rgb(255, 0, 0); fill-opacity: 1;"/><path class="point" transform="translate(1461.07,752.16)" d="M3.9,0L0,3.9L-3.9,0L0,-3.9Z" style="opacity: 1; stroke-width: 0px; fill: rgb(255, 0, 0); fill-opacity: 1;"/><path class="point" transform="translate(1536.68,761)" d="M3.9,0L0,3.9L-3.9,0L0,-3.9Z" style="opacity: 1; stroke-width: 0px; fill: rgb(255, 0, 0); fill-opacity: 1;"/><path class="point" transform="translate(1612.29,752.16)" d="M3.9,0L0,3.9L-3.9,0L0,-3.9Z" style="opacity: 1; stroke-width: 0px; fill: rgb(255, 0, 0); fill-opacity: 1;"/></g></g><g class="trace scatter trace8dbf3f" style="stroke-miterlimit: 2; opacity: 1;"><path class="js-line" style="vector-effect: non-scaling-stroke; fill: none; stroke: rgb(0, 128, 0); stroke-opacity: 1; stroke-width: 2px; opacity: 1;" d="M91.75,674L92.73,670.75L93.7,670.75L99.41,670.75L100.38,665.16L101.36,665.16L107.07,667.95L109.02,667.95L114.73,665.16L116.68,665.16L175.33,662.37L176.3,659.12L177.28,659.12L182.98,656.32L183.96,130.16L184.94,48.75L190.64,86.43L192.6,185.06L198.3,226L200.26,272.52L205.96,292.99L206.94,298.57L207.91,295.78L213.62,307.41L214.6,316.25L215.57,321.83L221.28,321.83L222.26,324.62L223.23,316.25L228.94,304.62L229.92,304.62L230.89,316.25L236.6,319.04L238.55,330.67L244.26,339.51L246.21,356.72L251.92,362.77L252.89,365.56L253.87,374.4L259.58,379.98L260.55,386.03L261.53,388.82L267.23,391.62L273.92,391.62L274.89,394.41L280.6,391.62L281.58,394.41L289.24,397.66L295.92,400.45L296.89,397.66L302.6,400.45L304.55,406.04L310.26,409.29L311.23,409.29L312.21,406.04L318.89,412.08L319.87,414.88L326.55,420.92L327.53,420.92L334.21,414.88L335.19,420.92L341.87,420.92L342.85,417.67L348.55,423.72L349.53,420.92L358.17,420.92L363.87,417.67L364.85,417.67L365.83,409.29L371.53,409.29L372.51,403.25L379.19,397.66L380.17,403.25L381.14,409.29L386.85,414.88L388.8,423.72L394.51,423.72L396.46,423.72L402.17,426.51L403.14,426.51L404.12,414.88L410.8,420.92L411.78,420.92L418.46,414.88L419.44,406.04L425.14,400.45L426.12,397.66L427.1,391.62L432.8,391.62L433.78,391.62L434.76,394.41L441.44,394.41L442.42,388.82L448.12,388.82L449.1,391.62L450.08,400.45L455.78,403.25L456.76,400.45L457.73,403.25L463.44,403.25L464.41,406.04L465.39,403.25L471.1,409.29L473.05,417.67L478.76,420.92L479.73,417.67L480.71,417.67L487.39,414.88L488.37,406.04L494.07,406.04L495.05,403.25L496.03,403.25L501.73,406.04L503.69,417.67L509.39,417.67L511.35,412.08L517.05,417.67L518.03,426.51L519.01,420.92L524.71,417.67L525.69,414.88L526.66,406.04L532.37,391.62L534.32,374.4L540.03,368.35L541.01,365.56L541.98,359.52L549.64,359.52L555.35,365.56L556.32,362.77L557.3,362.77L563.01,362.77L563.98,371.15L564.96,374.4L570.67,377.19L571.64,379.98L572.62,379.98L578.32,382.78L579.3,386.03L585.98,386.03L586.96,388.82L587.94,388.82L593.64,391.62L595.6,386.03L601.3,388.82L602.28,391.62L603.26,391.62L609.94,391.62L610.91,397.66L616.62,397.66L617.6,400.45L618.58,397.66L624.28,397.66L631.94,397.66L632.91,394.41L639.6,394.41L640.57,397.66L641.55,397.66L647.25,400.45L648.23,400.45L649.21,397.66L654.91,397.66L655.89,388.82L656.87,403.25L662.57,446.98L664.53,525.6L670.23,557.7L672.19,600.96L677.89,612.59L679.85,630.27L685.55,639.11L687.5,647.48L693.21,647.48L694.19,647.48L695.16,644.69L700.87,641.9L701.84,644.69L709.5,644.69L710.48,647.48L716.19,650.74L717.16,653.53L718.14,647.48L723.84,647.48L725.8,641.9L731.5,641.9L733.46,647.48L739.16,647.48L740.14,650.74L741.12,650.74L747.8,647.48L748.78,650.74L755.46,653.53L756.43,656.32L763.12,656.32L764.1,659.12L770.78,662.37L771.75,659.12L777.46,659.12L778.44,662.37L779.41,665.16L785.12,665.16L787.07,659.12L792.78,659.12L793.75,659.12L794.73,656.32L815.75,656.32L816.73,659.12L817.71,659.12L823.42,656.32L824.39,650.74L825.37,650.74L831.07,650.74L832.05,647.48L833.03,647.48L838.73,641.9L839.71,641.9L840.69,644.69L846.39,641.9L847.37,639.11L848.34,639.11L854.05,641.9L855.03,644.69L856.01,639.11L862.69,635.85L863.66,633.06L869.37,635.85L870.35,641.9L871.32,647.48L877.03,650.74L878,653.53L878.98,650.74L884.68,647.48L885.66,641.9L886.64,641.9L892.34,639.11L894.3,639.11L900,633.06L900.98,635.85L901.96,635.85L907.66,639.11L908.64,644.69L909.62,644.69L915.32,641.9L922.98,641.9L923.96,639.11L924.93,635.85L930.64,639.11L931.62,641.9L932.6,639.11L938.3,635.85L939.28,633.06L940.25,635.85L945.96,639.11L947.91,639.11L953.62,641.9L954.59,639.11L955.57,633.06L962.25,627.48L963.23,624.22L968.94,630.27L969.91,633.06L970.89,633.06L976.59,635.85L977.57,635.85L978.55,633.06L985.23,639.11L986.21,639.11L991.91,641.9L992.89,639.11L993.87,641.9L999.57,639.11L1000.55,635.85L1001.52,635.85L1008.21,635.85L1009.18,639.11L1014.89,639.11L1015.87,635.85L1022.55,635.85L1023.53,639.11L1031.18,639.11L1032.16,641.9L1037.87,641.9L1038.84,639.11L1039.82,641.9L1045.53,641.9L1046.5,641.9L1047.48,639.11L1061.82,639.11L1062.8,635.85L1068.5,635.85L1069.48,639.11L1076.16,639.11L1077.14,635.85L1083.82,635.85L1084.8,633.06L1099.14,633.06L1100.12,635.85L1106.8,635.85L1107.78,633.06L1108.75,639.11L1114.46,639.11L1115.43,639.11L1116.41,641.9L1122.12,644.69L1123.09,641.9L1124.07,639.11L1129.78,641.9L1130.75,644.69L1131.73,644.69L1137.43,644.69L1138.41,641.9L1145.09,641.9L1146.07,635.85L1147.05,633.06L1152.75,627.48L1153.73,630.27L1154.71,624.22L1160.41,621.43L1161.39,624.22L1162.37,624.22L1168.07,630.27L1170.03,630.27L1175.73,633.06L1176.71,633.06L1177.68,635.85L1183.39,635.85L1184.37,633.06L1185.34,633.06L1191.05,630.27L1192.03,627.48L1193,630.27L1198.71,633.06L1199.68,630.27L1200.66,630.27L1206.37,627.48L1214.03,627.48L1215,624.22L1222.66,624.22L1223.64,627.48L1230.32,624.22L1231.3,621.43L1237,577.7L1237.98,580.96L1238.96,583.75L1244.66,583.75L1245.64,586.54L1246.62,583.75L1252.32,583.75L1253.3,580.96L1254.28,577.7L1259.98,572.12L1260.96,572.12L1261.93,574.91L1267.64,577.7L1268.62,574.91L1269.59,572.12L1275.3,574.91L1277.25,580.96L1282.96,577.7L1283.93,580.96L1284.91,574.91L1290.61,574.91L1291.59,569.33L1292.57,572.12L1298.27,569.33L1300.23,574.91L1305.93,574.91L1306.91,580.96L1307.89,580.96L1313.59,580.96L1314.57,577.7L1315.55,577.7L1321.25,580.96L1323.21,574.91L1328.91,569.33L1329.89,566.07L1330.86,569.33L1337.55,574.91L1338.52,577.7L1345.21,580.96L1346.18,583.75L1352.86,580.96L1353.84,583.75L1359.55,583.75L1360.52,586.54L1361.5,589.33L1367.21,589.33L1368.18,589.33L1369.16,586.54L1374.87,586.54L1375.84,583.75L1376.82,577.7L1382.52,577.7L1384.48,569.33L1390.18,569.33L1391.16,569.33L1392.14,574.91L1397.84,572.12L1398.82,577.7L1399.79,580.96L1405.5,583.75L1406.48,589.33L1407.45,589.33L1414.14,592.59L1415.11,592.59L1421.8,598.17L1422.77,592.59L1429.46,577.7L1430.43,583.75L1436.14,586.54L1437.11,583.75L1438.09,586.54L1443.8,586.54L1445.75,572.12L1451.45,563.28L1452.43,563.28L1453.41,566.07L1459.11,569.33L1460.09,557.7L1461.07,557.7L1466.77,551.65L1468.73,551.65L1474.43,557.7L1475.41,563.28L1476.39,560.49L1482.09,557.7L1483.07,548.86L1484.05,546.07L1489.75,554.44L1491.7,569.33L1497.41,560.49L1498.39,557.7L1499.36,551.65L1505.07,551.65L1506.05,557.7L1507.02,566.07L1512.73,572.12L1514.68,589.33L1520.39,586.54L1521.36,586.54L1522.34,583.75L1528.05,583.75L1529.02,580.96L1530,580.96L1535.7,583.75L1536.68,583.75L1537.66,580.96L1544.34,583.75L1545.32,577.7L1551.02,574.91L1552,569.33L1552.98,560.49L1558.68,548.86L1560.64,525.6L1566.34,499.55L1567.32,484.66L1568.3,496.29L1574,511.18L1574.98,516.76L1575.95,519.55L1581.66,522.81L1583.61,531.18L1589.32,540.02L1591.27,540.02L1596.98,551.65L1597.95,554.44L1598.93,560.49L1604.64,566.07L1605.61,574.91L1606.59,577.7L1612.29,583.75L1614.25,592.59L1619.95,592.59L1620.93,592.59L1621.91,583.75"/><g class="points"><path class="point" transform="translate(115.7,665.16)" d="M3,0A3,3 0 1,1 0,-3A3,3 0 0,1 3,0Z" style="opacity: 1; stroke-width: 0px; fill: rgb(0, 128, 0); fill-opacity: 1;"/><path class="point" transform="translate(244.26,339.51)" d="M3,0A3,3 0 1,1 0,-3A3,3 0 0,1 3,0Z" style="opacity: 1; stroke-width: 0px; fill: rgb(0, 128, 0); fill-opacity: 1;"/><path class="point" transform="translate(326.55,420.92)" d="M3,0A3,3 0 1,1 0,-3A3,3 0 0,1 3,0Z" style="opacity: 1; stroke-width: 0px; fill: rgb(0, 128, 0); fill-opacity: 1;"/><path class="point" transform="translate(403.14,426.51)" d="M3,0A3,3 0 1,1 0,-3A3,3 0 0,1 3,0Z" style="opacity: 1; stroke-width: 0px; fill: rgb(0, 128, 0); fill-opacity: 1;"/><path class="point" transform="translate(478.76,420.92)" d="M3,0A3,3 0 1,1 0,-3A3,3 0 0,1 3,0Z" style="opacity: 1; stroke-width: 0px; fill: rgb(0, 128, 0); fill-opacity: 1;"/><path class="point" transform="translate(549.64,359.52)" d="M3,0A3,3 0 1,1 0,-3A3,3 0 0,1 3,0Z" style="opacity: 1; stroke-width: 0px; fill: rgb(0, 128, 0); fill-opacity: 1;"/><path class="point" transform="translate(625.25,397.66)" d="M3,0A3,3 0 1,1 0,-3A3,3 0 0,1 3,0Z" style="opacity: 1; stroke-width: 0px; fill: rgb(0, 128, 0); fill-opacity: 1;"/><path class="point" transform="translate(700.87,641.9)" d="M3,0A3,3 0 1,1 0,-3A3,3 0 0,1 3,0Z" style="opacity: 1; stroke-width: 0px; fill: rgb(0, 128, 0); fill-opacity: 1;"/><path class="point" transform="translate(771.75,659.12)" d="M3,0A3,3 0 1,1 0,-3A3,3 0 0,1 3,0Z" style="opacity: 1; stroke-width: 0px; fill: rgb(0, 128, 0); fill-opacity: 1;"/><path class="point" transform="translate(847.37,639.11)" d="M3,0A3,3 0 1,1 0,-3A3,3 0 0,1 3,0Z" style="opacity: 1; stroke-width: 0px; fill: rgb(0, 128, 0); fill-opacity: 1;"/><path class="point" transform="translate(922.98,641.9)" d="M3,0A3,3 0 1,1 0,-3A3,3 0 0,1 3,0Z" style="opacity: 1; stroke-width: 0px; fill: rgb(0, 128, 0); fill-opacity: 1;"/><path class="point" transform="translate(993.87,641.9)" d="M3,0A3,3 0 1,1 0,-3A3,3 0 0,1 3,0Z" style="opacity: 1; stroke-width: 0px; fill: rgb(0, 128, 0); fill-opacity: 1;"/><path class="point" transform="translate(1069.48,639.11)" d="M3,0A3,3 0 1,1 0,-3A3,3 0 0,1 3,0Z" style="opacity: 1; stroke-width: 0px; fill: rgb(0, 128, 0); fill-opacity: 1;"/><path class="point" transform="translate(1145.09,641.9)" d="M3,0A3,3 0 1,1 0,-3A3,3 0 0,1 3,0Z" style="opacity: 1; stroke-width: 0px; fill: rgb(0, 128, 0); fill-opacity: 1;"/><path class="point" transform="translate(1215.98,624.22)" d="M3,0A3,3 0 1,1 0,-3A3,3 0 0,1 3,0Z" style="opacity: 1; stroke-width: 0px; fill: rgb(0, 128, 0); fill-opacity: 1;"/><path class="point" transform="translate(1291.59,569.33)" d="M3,0A3,3 0 1,1 0,-3A3,3 0 0,1 3,0Z" style="opacity: 1; stroke-width: 0px; fill: rgb(0, 128, 0); fill-opacity: 1;"/><path class="point" transform="translate(1367.21,589.33)" d="M3,0A3,3 0 1,1 0,-3A3,3 0 0,1 3,0Z" style="opacity: 1; stroke-width: 0px; fill: rgb(0, 128, 0); fill-opacity: 1;"/><path class="point" transform="translate(1438.09,586.54)" d="M3,0A3,3 0 1,1 0,-3A3,3 0 0,1 3,0Z" style="opacity: 1; stroke-width: 0px; fill: rgb(0, 128, 0); fill-opacity: 1;"/><path class="point" transform="translate(1513.7,580.96)" d="M3,0A3,3 0 1,1 0,-3A3,3 0 0,1 3,0Z" style="opacity: 1; stroke-width: 0px; fill: rgb(0, 128, 0); fill-opacity: 1;"/><path class="point" transform="translate(1589.32,540.02)" d="M3,0A3,3 0 1,1 0,-3A3,3 0 0,1 3,0Z" style="opacity: 1; stroke-width: 0px; fill: rgb(0, 128, 0); fill-opacity: 1;"/></g></g></g></g><g class="overplot"/><path class="xlines-above crisp" style="fill: none;"/><path class="ylines-above crisp" style="fill: none;"/><g class="overlines-above"/><g class="xaxislayer-above"><g class="xtick"><text text-anchor="middle" x="0" y="1013" style="font-family: TOBESTRIPPEDOpen SansTOBESTRIPPED, verdana, arial, sans-serif; font-size: 12px; fill: rgb(68, 68, 68); fill-opacity: 1; white-space: pre;" transform="translate(258.78,0)"><tspan class="line" dy="0em" x="0" y="1013">12:40</tspan><tspan class="line" dy="1.3em" x="0" y="1013">Mar 22, 2018</tspan></text></g><g class="xtick"><text text-anchor="middle" x="0" y="1013" style="font-family: TOBESTRIPPEDOpen SansTOBESTRIPPED, verdana, arial, sans-serif; font-size: 12px; fill: rgb(68, 68, 68); fill-opacity: 1; white-space: pre;" transform="translate(542.44,0)">12:45</text></g><g class="xtick"><text text-anchor="middle" x="0" y="1013" style="font-family: TOBESTRIPPEDOpen SansTOBESTRIPPED, verdana, arial, sans-serif; font-size: 12px; fill: rgb(68, 68, 68); fill-opacity: 1; white-space: pre;" transform="translate(826.11,0)">12:50</text></g><g class="xtick"><text text-anchor="middle" x="0" y="1013" style="font-family: TOBESTRIPPEDOpen SansTOBESTRIPPED, verdana, arial, sans-serif; font-size: 12px; fill: rgb(68, 68, 68); fill-opacity: 1; white-space: pre;" transform="translate(1109.77,0)">12:55</text></g><g class="xtick"><text text-anchor="middle" x="0" y="1013" style="font-family: TOBESTRIPPEDOpen SansTOBESTRIPPED, verdana, arial, sans-serif; font-size: 12px; fill: rgb(68, 68, 68); fill-opacity: 1; white-space: pre;" transform="translate(1393.44,0)">13:00</text></g><g class="xtick"><text text-anchor="middle" x="0" y="1013" style="font-family: TOBESTRIPPEDOpen SansTOBESTRIPPED, verdana, arial, sans-serif; font-size: 12px; fill: rgb(68, 68, 68); fill-opacity: 1; white-space: pre;" transform="translate(1677.1,0)">13:05</text></g></g><g class="yaxislayer-above"><g class="ytick"><text text-anchor="end" x="79" y="4.199999999999999" style="font-family: TOBESTRIPPEDOpen SansTOBESTRIPPED, verdana, arial, sans-serif; font-size: 12px; fill: rgb(68, 68, 68); fill-opacity: 1; white-space: pre;" transform="translate(0,942.41)">24</text></g><g class="ytick"><text text-anchor="end" x="79" y="4.199999999999999" style="font-family: TOBESTRIPPEDOpen SansTOBESTRIPPED, verdana, arial, sans-serif; font-size: 12px; fill: rgb(68, 68, 68); fill-opacity: 1; white-space: pre;" transform="translate(0,849.37)">26</text></g><g class="ytick"><text text-anchor="end" x="79" y="4.199999999999999" style="font-family: TOBESTRIPPEDOpen SansTOBESTRIPPED, verdana, arial, sans-serif; font-size: 12px; fill: rgb(68, 68, 68); fill-opacity: 1; white-space: pre;" transform="translate(0,756.32)">28</text></g><g class="ytick"><text text-anchor="end" x="79" y="4.199999999999999" style="font-family: TOBESTRIPPEDOpen SansTOBESTRIPPED, verdana, arial, sans-serif; font-size: 12px; fill: rgb(68, 68, 68); fill-opacity: 1; white-space: pre;" transform="translate(0,663.28)">30</text></g><g class="ytick"><text text-anchor="end" x="79" y="4.199999999999999" style="font-family: TOBESTRIPPEDOpen SansTOBESTRIPPED, verdana, arial, sans-serif; font-size: 12px; fill: rgb(68, 68, 68); fill-opacity: 1; white-space: pre;" transform="translate(0,570.24)">32</text></g><g class="ytick"><text text-anchor="end" x="79" y="4.199999999999999" style="font-family: TOBESTRIPPEDOpen SansTOBESTRIPPED, verdana, arial, sans-serif; font-size: 12px; fill: rgb(68, 68, 68); fill-opacity: 1; white-space: pre;" transform="translate(0,477.19)">34</text></g><g class="ytick"><text text-anchor="end" x="79" y="4.199999999999999" style="font-family: TOBESTRIPPEDOpen SansTOBESTRIPPED, verdana, arial, sans-serif; font-size: 12px; fill: rgb(68, 68, 68); fill-opacity: 1; white-space: pre;" transform="translate(0,384.15)">36</text></g><g class="ytick"><text text-anchor="end" x="79" y="4.199999999999999" style="font-family: TOBESTRIPPEDOpen SansTOBESTRIPPED, verdana, arial, sans-serif; font-size: 12px; fill: rgb(68, 68, 68); fill-opacity: 1; white-space: pre;" transform="translate(0,291.11)">38</text></g><g class="ytick"><text text-anchor="end" x="79" y="4.199999999999999" style="font-family: TOBESTRIPPEDOpen SansTOBESTRIPPED, verdana, arial, sans-serif; font-size: 12px; fill: rgb(68, 68, 68); fill-opacity: 1; white-space: pre;" transform="translate(0,198.06)">40</text></g><g class="ytick"><text text-anchor="end" x="79" y="4.199999999999999" style="font-family: TOBESTRIPPEDOpen SansTOBESTRIPPED, verdana, arial, sans-serif; font-size: 12px; fill: rgb(68, 68, 68); fill-opacity: 1; white-space: pre;" transform="translate(0,105.02)">42</text></g></g><g class="overaxes-above"/></g></g><g class="polarlayer"/><g class="ternarylayer"/><g class="geolayer"/><g class="pielayer"/><g class="glimages"/><defs id="topdefs-ee2c25"><g class="clips"/><clipPath id="legendee2c25"><rect width="65" height="67" x="0" y="0"/></clipPath></defs><g class="layer-above"><g class="imagelayer"/><g class="shapelayer"/></g><g class="infolayer"><g class="g-gtitle"><text class="gtitle" style="font-family: TOBESTRIPPEDOpen SansTOBESTRIPPED, verdana, arial, sans-serif; font-size: 17px; fill: rgb(68, 68, 68); opacity: 1; font-weight: normal; white-space: pre;" x="960" y="50" text-anchor="middle">Sıcaklık Dağılımı</text></g><g class="legend" pointer-events="all" transform="translate(1842.56, 100)"><rect class="bg" shape-rendering="crispEdges" style="stroke: rgb(68, 68, 68); stroke-opacity: 1; fill: rgb(255, 255, 255); fill-opacity: 1; stroke-width: 0px;" width="65" height="67" x="0" y="0"/><g class="scrollbox" transform="translate(0, 0)" clip-path="url(#legendee2c25)"><g class="groups"><g class="traces" style="opacity: 1;" transform="translate(0, 14.5)"><g class="layers" style="opacity: 1;"><g class="legendfill"/><g class="legendlines"><path class="js-line" d="M5,0h30" style="fill: none; stroke: rgb(0, 0, 255); stroke-opacity: 1; stroke-width: 2px;"/></g><g class="legendsymbols"><g class="legendpoints"><path class="scatterpts" transform="translate(20,0)" d="M3,3H-3V-3H3Z" style="opacity: 1; stroke-width: 0px; fill: rgb(0, 0, 255); fill-opacity: 1;"/></g></g></g><text class="legendtext user-select-none" text-anchor="start" style="font-family: TOBESTRIPPEDOpen SansTOBESTRIPPED, verdana, arial, sans-serif; font-size: 12px; fill: rgb(68, 68, 68); fill-opacity: 1; white-space: pre;" x="40" y="4.680000000000001">T1</text><rect class="legendtoggle" style="cursor: pointer; fill: rgb(0, 0, 0); fill-opacity: 0;" pointer-events="all" x="0" y="-9.5" width="105" height="19"/></g><g class="traces" style="opacity: 1;" transform="translate(0, 33.5)"><g class="layers" style="opacity: 1;"><g class="legendfill"/><g class="legendlines"><path class="js-line" d="M5,0h30" style="fill: none; stroke: rgb(255, 0, 0); stroke-opacity: 1; stroke-width: 2px;"/></g><g class="legendsymbols"><g class="legendpoints"><path class="scatterpts" transform="translate(20,0)" d="M3.9,0L0,3.9L-3.9,0L0,-3.9Z" style="opacity: 1; stroke-width: 0px; fill: rgb(255, 0, 0); fill-opacity: 1;"/></g></g></g><text class="legendtext user-select-none" text-anchor="start" style="font-family: TOBESTRIPPEDOpen SansTOBESTRIPPED, verdana, arial, sans-serif; font-size: 12px; fill: rgb(68, 68, 68); fill-opacity: 1; white-space: pre;" x="40" y="4.680000000000001">T2</text><rect class="legendtoggle" style="cursor: pointer; fill: rgb(0, 0, 0); fill-opacity: 0;" pointer-events="all" x="0" y="-9.5" width="105" height="19"/></g><g class="traces" style="opacity: 1;" transform="translate(0, 52.5)"><g class="layers" style="opacity: 1;"><g class="legendfill"/><g class="legendlines"><path class="js-line" d="M5,0h30" style="fill: none; stroke: rgb(0, 128, 0); stroke-opacity: 1; stroke-width: 2px;"/></g><g class="legendsymbols"><g class="legendpoints"><path class="scatterpts" transform="translate(20,0)" d="M3,0A3,3 0 1,1 0,-3A3,3 0 0,1 3,0Z" style="opacity: 1; stroke-width: 0px; fill: rgb(0, 128, 0); fill-opacity: 1;"/></g></g></g><text class="legendtext user-select-none" text-anchor="start" style="font-family: TOBESTRIPPEDOpen SansTOBESTRIPPED, verdana, arial, sans-serif; font-size: 12px; fill: rgb(68, 68, 68); fill-opacity: 1; white-space: pre;" x="40" y="4.680000000000001">T3</text><rect class="legendtoggle" style="cursor: pointer; fill: rgb(0, 0, 0); fill-opacity: 0;" pointer-events="all" x="0" y="-9.5" width="105" height="19"/></g></g></g><rect class="scrollbar" rx="20" ry="2" width="0" height="0" style="fill: rgb(128, 139, 164); fill-opacity: 1;"/></g><g class="g-xtitle"><text class="xtitle" style="font-family: Courier New, monospace; font-size: 18px; fill: rgb(127, 127, 127); opacity: 1; font-weight: normal; white-space: pre;" x="944" y="1064" text-anchor="middle">Zaman</text></g><g class="g-ytitle"><text class="ytitle" transform="rotate(-90,34,550)" style="font-family: Courier New, monospace; font-size: 18px; fill: rgb(127, 127, 127); opacity: 1; font-weight: normal; white-space: pre;" x="34" y="550" text-anchor="middle">Sıcaklık [​<tspan style="font-size:70%" dy="-0.6em">o</tspan><tspan dy="0.42em">​</tspan>C]</text></g></g></svg>